# xmcd
#
# Track frame offsets:
#	150
#	20662
#	40773
#	59308
#	79821
#	99932
#
# Disc length: 1574 seconds
#
# Revision: 1
# Processed by: cddbd v1.5.1PL0 Copyright (c) Steve Scherf et al.
# Submitted via: CDex 1.50Beta5
#
DISCID=40062406
DTITLE=松澤由美 - 哀しいよ
DYEAR=2001
DGENRE=Pop
TTITLE0=哀しいよ
TTITLE1=夕暮れ
TTITLE2=人魚
TTITLE3=哀しいよ(オリジナル・カラオケ)
TTITLE4=夕暮れ(オリジナル・カラオケ)
TTITLE5=人魚(オリジナル・カラオケ)
EXTD=
EXTT0=
EXTT1=
EXTT2=
EXTT3=
EXTT4=
EXTT5=
PLAYORDER=
